<?xml version="1.0" encoding="utf-8"?>
<!-- Generator: Adobe Illustrator 25.4.1, SVG Export Plug-In . SVG Version: 6.00 Build 0)  -->
<svg version="1.1" id="svg1" xmlns:svg="http://www.w3.org/2000/svg"
	 xmlns="http://www.w3.org/2000/svg" xmlns:xlink="http://www.w3.org/1999/xlink" x="0px" y="0px" viewBox="0 0 512 512"
	 style="enable-background:new 0 0 512 512;" xml:space="preserve">
<style type="text/css">
	.st0{fill:#AF8935;}
	.st1{fill:#52A435;}
	.st2{fill:#332D20;}
	.st3{fill:#2B2319;}
	.st4{fill:#423E2E;}
	.st5{fill:#D8AD41;}
	.st6{fill:#543D0F;}
	.st7{fill:#60531B;}
	.st8{fill:#D3B663;}
	.st9{fill:#2A631B;}
	.st10{fill:#86D562;}
	.st11{fill:#215612;}
	.st12{fill:#7CD34F;}
</style>
<path id="rect1" class="st0" d="M0,0h512v512H0V0z"/>
<path id="rect1_00000017488137783351260830000011847685607839886222_" class="st1" d="M0,0h256v512H0V0z"/>
<path id="rect9" d="M102.4,110.9h102.4v93.9H102.4V110.9z"/>
<path id="rect9_00000124141870911734926340000006468800494325699243_" d="M307.2,110.9h102.4v93.9H307.2V110.9z"/>
<path id="rect15_00000164492380788112124040000008231316906451510166_" d="M307.2,213.3v51.2h51.2v145.1h-51.2v-51.2H256V213.3
	H307.2z"/>
<g>
	<path class="st2" d="M330.4,203l12-12l-9.4-9.4l-9.4-9.4l-11.9,11.9c-1.6,1.5-3.1,3-4.5,4.4v16.3h21.4
		C329.1,204.2,329.7,203.6,330.4,203z"/>
	<path class="st3" d="M307.2,110.9v65.3l2.8-2.8c10.3-10.3,12.5-12.1,13.9-12.1c1.4,0,3.7,2,15.5,13.9c12.8,12.7,13.9,14,13.9,15.8
		c0,1.8-1,3.1-11.9,13.9h68.3v-93.9H307.2z"/>
	<path class="st2" d="M307.2,213.3H204.8v51.2h-51.2v4.6h12.9c14.7,0,15.7,0.1,17.1,1.2c0.8,0.6,1.6,1.9,1.8,3
		c1.3,5.6,4.8,14.1,9.4,22.1c0.7,1.1,1.2,2.5,1.2,3.1c0,0.8-4.1,5.3-10.6,11.8l-10.5,10.6l9.4,9.4l9.4,9.4l10.8-10.8
		c8.7-8.6,11-10.7,12.3-10.7c0.9,0,3.6,1.1,6.1,2.3c5.3,2.7,10.5,4.7,14.7,5.7c5.3,1.3,5.2,1.1,5.2,19.2v13h26.4v-13
		c0-18.1-0.1-17.9,5.2-19.2c4.9-1.2,10.1-3.2,16.9-6.9c3.6-1.8,6.9-3.4,7.5-3.4s6.4,5.3,12.9,11.8l11.9,11.9l9.4-9.4l9.4-9.4l-12-12
		c-9.5-9.5-12-12.3-12-13.5c0-0.9,1.4-4.5,3.1-8c1.6-3.6,3.7-8.5,4.3-11c2-7.6,1.1-7.2,19.8-7.2h12.9v-4.7h-51.2V213.3z
		 M283.8,274.9c-10.5,15.4-31.1,19.4-46.6,8.8s-19.4-31.3-8.7-46.8c4.7-6.9,12.2-12,20.2-13.8C278.4,216.8,300.9,249.6,283.8,274.9z
		"/>
	<path class="st4" d="M233.5,334.8l-4-1.4c-2-0.7-5.6-2.1-7.8-3.1l-4-1.8l-11,11c-10.3,10.3-11.3,11-13.2,11c-1.9,0-3-0.9-15.8-13.8
		c-12.5-12.6-13.7-14-13.7-15.7c0-1.8,1-3,10.7-12.7l10.7-10.7l-2.7-5.6c-1.5-3.1-3.2-7.5-4-9.6l-1.4-4l-16.7-0.3l-7-0.1v131.5h51.2
		v-51.2h29.1l-0.1-7L233.5,334.8z"/>
	<path class="st3" d="M334.7,278.7l-1.4,4c-0.7,2-2.1,5.6-3.1,7.8l-1.8,4l12.4,12.4c11.3,11.4,12.4,12.6,12.4,14.4
		c0,1.7-1.1,3-13.6,15.5c-10.8,10.8-14.1,13.7-15.5,14c-1.8,0.4-2.2,0.1-14.1-11.8l-12.2-12.2l-5.6,2.7c-3.1,1.5-7.4,3.2-9.6,4
		l-4,1.4l-0.3,16.7l-0.1,7h29v51.2h51.2V278.3l-7,0.1L334.7,278.7z"/>
</g>
<path id="rect15_00000101795302637666824020000010006013866426188950_" d="M204.8,213.3v51.2h-51.2v145.1h51.2v-51.2H256V213.3
	H204.8z"/>
<g id="left">
	<path id="rect13" class="st5" d="M307.2,204.8h102.4v8.5H307.2V204.8z"/>
	<path id="rect7" class="st6" d="M307.2,102.4h102.4v8.5H307.2V102.4z"/>
	<path id="rect20" class="st7" d="M307.2,256h51.2v8.5h-51.2V256z"/>
	<path id="rect22" class="st5" d="M307.2,409.6h51.2v8.5h-51.2V409.6z"/>
</g>
<g id="mid">
	<path id="rect14" class="st7" d="M204.8,204.8h102.4v8.5H204.8V204.8z"/>
	<path id="rect16" class="st8" d="M204.8,358.4h102.4v8.5H204.8V358.4z"/>
	<path id="rect14_00000180358952900162907320000014590012671327454892_" class="st9" d="M204.8,204.8H256v8.5h-51.2V204.8z"/>
	<path id="rect16_00000085230193486568997510000017785545303215516056_" class="st10" d="M204.8,358.4H256v8.5h-51.2V358.4z"/>
</g>
<path id="rect6" class="st11" d="M102.4,102.4h102.4v8.5H102.4V102.4z"/>
<path id="rect12" class="st10" d="M102.4,204.8h102.4v8.5H102.4V204.8z"/>
<path id="rect17" class="st9" d="M153.6,256h51.2v8.5h-51.2V256z"/>
<path id="rect19" class="st12" d="M153.6,409.6h51.2v8.5h-51.2V409.6z"/>
</svg>
